<?xml version="1.0" encoding="UTF-8" standalone="no"?>
<!-- Created with Inkscape (http://www.inkscape.org/) -->

<svg
   xmlns:dc="http://purl.org/dc/elements/1.1/"
   xmlns:cc="http://creativecommons.org/ns#"
   xmlns:rdf="http://www.w3.org/1999/02/22-rdf-syntax-ns#"
   xmlns:svg="http://www.w3.org/2000/svg"
   xmlns="http://www.w3.org/2000/svg"
   xmlns:sodipodi="http://sodipodi.sourceforge.net/DTD/sodipodi-0.dtd"
   xmlns:inkscape="http://www.inkscape.org/namespaces/inkscape"
   width="525.73096"
   height="240.15256"
   id="svg5477"
   version="1.1"
   inkscape:version="0.48.4 r9939"
   sodipodi:docname="onestep_lookahead.pdf">
  <sodipodi:namedview
     id="base"
     pagecolor="#ffffff"
     bordercolor="#666666"
     borderopacity="1.0"
     inkscape:pageopacity="0.0"
     inkscape:pageshadow="2"
     inkscape:zoom="0.98994949"
     inkscape:cx="154.67585"
     inkscape:cy="-90.325855"
     inkscape:document-units="px"
     inkscape:current-layer="layer1"
     showgrid="false"
     inkscape:snap-global="true"
     inkscape:object-paths="true"
     inkscape:snap-nodes="true"
     inkscape:window-width="1615"
     inkscape:window-height="1026"
     inkscape:window-x="65"
     inkscape:window-y="24"
     inkscape:window-maximized="1"
     fit-margin-top="0"
     fit-margin-left="0"
     fit-margin-right="0"
     fit-margin-bottom="0" />
  <defs
     id="defs5479" />
  <metadata
     id="metadata5482">
    <rdf:RDF>
      <cc:Work
         rdf:about="">
        <dc:format>image/svg+xml</dc:format>
        <dc:type
           rdf:resource="http://purl.org/dc/dcmitype/StillImage" />
        <dc:title></dc:title>
      </cc:Work>
    </rdf:RDF>
  </metadata>
  <g
     inkscape:label="Layer 1"
     inkscape:groupmode="layer"
     id="layer1"
     transform="translate(-70,-42.209634)">
    <path
       sodipodi:type="arc"
       style="color:#000000;fill:none;stroke:#000000;stroke-width:2.89243793;stroke-linecap:butt;stroke-linejoin:miter;stroke-miterlimit:4;stroke-opacity:1;stroke-dasharray:none;stroke-dashoffset:0;marker:none;visibility:visible;display:inline;overflow:visible;enable-background:accumulate"
       id="path5522-3"
       sodipodi:cx="452.54834"
       sodipodi:cy="111.91016"
       sodipodi:rx="36.36549"
       sodipodi:ry="33.335033"
       d="m 488.91383,111.91016 c 0,18.41043 -16.28138,33.33503 -36.36549,33.33503 -20.08411,0 -36.36549,-14.9246 -36.36549,-33.33503 0,-18.410434 16.28138,-33.335037 36.36549,-33.335037 20.08411,0 36.36549,14.924603 36.36549,33.335037 z"
       transform="matrix(1,0,0,1.0757576,-344.68285,124.61357)" />
    <path
       sodipodi:type="arc"
       style="color:#000000;fill:none;stroke:#000000;stroke-width:2.89243793;stroke-linecap:butt;stroke-linejoin:miter;stroke-miterlimit:4;stroke-opacity:1;stroke-dasharray:none;stroke-dashoffset:0;marker:none;visibility:visible;display:inline;overflow:visible;enable-background:accumulate"
       id="path5522-3-2"
       sodipodi:cx="452.54834"
       sodipodi:cy="111.91016"
       sodipodi:rx="36.36549"
       sodipodi:ry="33.335033"
       d="m 488.91383,111.91016 c 0,18.41043 -16.28138,33.33503 -36.36549,33.33503 -20.08411,0 -36.36549,-14.9246 -36.36549,-33.33503 0,-18.410434 16.28138,-33.335037 36.36549,-33.335037 20.08411,0 36.36549,14.924603 36.36549,33.335037 z"
       transform="matrix(1,0,0,1.0757576,-194.68285,124.61357)" />
    <path
       sodipodi:type="arc"
       style="color:#000000;fill:none;stroke:#000000;stroke-width:2.89243793;stroke-linecap:butt;stroke-linejoin:miter;stroke-miterlimit:4;stroke-opacity:1;stroke-dasharray:none;stroke-dashoffset:0;marker:none;visibility:visible;display:inline;overflow:visible;enable-background:accumulate"
       id="path5522-3-2-5"
       sodipodi:cx="452.54834"
       sodipodi:cy="111.91016"
       sodipodi:rx="36.36549"
       sodipodi:ry="33.335033"
       d="m 488.91383,111.91016 c 0,18.41043 -16.28138,33.33503 -36.36549,33.33503 -20.08411,0 -36.36549,-14.9246 -36.36549,-33.33503 0,-18.410434 16.28138,-33.335037 36.36549,-33.335037 20.08411,0 36.36549,14.924603 36.36549,33.335037 z"
       transform="matrix(1,0,0,1.0757576,-44.68285,124.61357)" />
    <path
       sodipodi:type="arc"
       style="color:#000000;fill:none;stroke:#000000;stroke-width:2.89243793;stroke-linecap:butt;stroke-linejoin:miter;stroke-miterlimit:4;stroke-opacity:1;stroke-dasharray:none;stroke-dashoffset:0;marker:none;visibility:visible;display:inline;overflow:visible;enable-background:accumulate"
       id="path5522-3-2-5-9"
       sodipodi:cx="452.54834"
       sodipodi:cy="111.91016"
       sodipodi:rx="36.36549"
       sodipodi:ry="33.335033"
       d="m 488.91383,111.91016 c 0,18.41043 -16.28138,33.33503 -36.36549,33.33503 -20.08411,0 -36.36549,-14.9246 -36.36549,-33.33503 0,-18.410434 16.28138,-33.335037 36.36549,-33.335037 20.08411,0 36.36549,14.924603 36.36549,33.335037 z"
       transform="matrix(1,0,0,1.0757576,105.31715,124.61357)" />
    <path
       sodipodi:type="arc"
       style="color:#000000;fill:#000000;fill-opacity:1;fill-rule:nonzero;stroke:#da0000;stroke-width:0;stroke-linecap:butt;stroke-linejoin:miter;stroke-miterlimit:4;stroke-opacity:1;stroke-dasharray:none;stroke-dashoffset:0;marker:none;visibility:visible;display:inline;overflow:visible;enable-background:accumulate"
       id="path5522"
       sodipodi:cx="452.54834"
       sodipodi:cy="111.91016"
       sodipodi:rx="36.36549"
       sodipodi:ry="33.335033"
       d="m 488.91383,111.91016 c 0,18.41043 -16.28138,33.33503 -36.36549,33.33503 -20.08411,0 -36.36549,-14.9246 -36.36549,-33.33503 0,-18.410434 16.28138,-33.335037 36.36549,-33.335037 20.08411,0 36.36549,14.924603 36.36549,33.335037 z"
       transform="matrix(1,0,0,1.0757576,-121.21831,-42.318152)" />
    <path
       style="fill:none;stroke:#000000;stroke-width:3;stroke-miterlimit:4;stroke-opacity:1;stroke-dasharray:none"
       d="M 331.33003,81.605587 113.05006,209.50303"
       id="path6140"
       inkscape:connector-curvature="0" />
    <path
       style="fill:none;stroke:#000000;stroke-width:3;stroke-miterlimit:4;stroke-opacity:1;stroke-dasharray:none"
       d="M 348.63627,109.61713 329.12697,82.89643 265.9688,210.03491"
       id="path6142"
       inkscape:connector-curvature="0" />
    <path
       style="fill:none;stroke:#000000;stroke-width:3;stroke-miterlimit:4;stroke-opacity:1;stroke-dasharray:none"
       d="M 331.33003,81.605587 397.49791,210.61977"
       id="path6144"
       inkscape:connector-curvature="0" />
    <path
       style="fill:none;stroke:#000000;stroke-width:3;stroke-miterlimit:4;stroke-opacity:1;stroke-dasharray:none"
       d="M 330.08455,82.335356 545.35249,211.32072"
       id="path6146"
       inkscape:connector-curvature="0" />
  </g>
</svg>
